# AST/ASF file generated using VICON BodyLanguage
# -----------------------------------------------
:version 1.10
:name VICON
:units
  mass 1.0
  length 0.45
  angle deg
:documentation
   .ast/.asf automatically generated from VICON data using
   VICON BodyBuilder and BodyLanguage model FoxedUp or BRILLIANT.MOD
:root
   order TX TY TZ RX RY RZ
   axis XYZ
   position 0 0 0  
   orientation 0 0 0 
:bonedata
  begin
     id 1 
     name lhipjoint
     direction 0.63403 -0.759788 0.143974 
     length 2.51904 
     axis 0 0 0  XYZ
  end
  begin
     id 2 
     name lfemur
     direction 0.34202 -0.939693 0  
     length 7.42313  
     axis 0 0 20  XYZ
    dof rx ry rz
    limits (-160.0 20.0)
           (-70.0 70.0)
           (-60.0 70.0)
  end
  begin
     id 3 
     name ltibia
     direction 0.34202 -0.939693 0   
     length 8.10141   
     axis 0 0 20   XYZ
    dof rx
    limits (-10.0 170.0)
  end
  begin
     id 4 
     name lfoot
     direction 0.0927455 -0.254816 0.962532   
     length 2.14078   
     axis -90 7.62852e-016 20   XYZ
    dof rx rz
    limits (-45.0 90.0)
           (-70.0 20.0)
  end
  begin
     id 5 
     name ltoes
     direction 1.53556e-011 -4.21949e-011 1   
     length 1.07182   
     axis -90 7.62852e-016 20   XYZ
    dof rx
    limits (-90.0 20.0)
  end
  begin
     id 6 
     name rhipjoint
     direction -0.659892 -0.738223 0.139888   
     length 2.59263  
     axis 0 0 0  XYZ 
  end
  begin
     id 7 
     name rfemur
     direction -0.34202 -0.939693 0   
     length 7.58575   
     axis 0 0 -20   XYZ
    dof rx ry rz
    limits (-160.0 20.0)
           (-70.0 70.0)
           (-70.0 60.0)
  end
  begin
     id 8 
     name rtibia
     direction -0.34202 -0.939693 0   
     length 8.19358   
     axis 0 0 -20   XYZ
    dof rx
    limits (-10.0 170.0)
 end
 begin
     id 9 
     name rfoot
     direction -0.0856543 -0.235333 0.968133   
     length 2.13415  
     axis -90 -7.62852e-016 -20   XYZ
    dof rx rz
    limits (-45.0 90.0)
           (-20.0 70.0)
  end
  begin
     id 10 
     name rtoes
     direction -1.53551e-011 -4.21811e-011 1   
     length 1.07055   
     axis -90 -7.62852e-016 -20   XYZ
    dof rx
    limits (-90.0 20.0)
  end
  begin
     id 11 
     name lowerback
     direction 0.025219 0.998394 -0.0507326   
     length 1.91844   
     axis 0 0 0   XYZ
    dof rx ry rz
    limits (-20.0 45.0)
           (-30.0 30.0)
           (-30.0 30.0)
  end
  begin
     id 12 
     name upperback
     direction 0.0213103 0.99967 -0.0143101   
     length 1.92246   
     axis 0 0 0   XYZ
    dof rx ry rz
    limits (-20.0 45.0)
           (-30.0 30.0)
           (-30.0 30.0)
  end
  begin
     id 13 
     name thorax
     direction 0.00920974 0.99991 0.00971518   
     length 1.92239   
     axis 0 0 0   XYZ
    dof rx ry rz
    limits (-20.0 45.0)
           (-30.0 30.0)
           (-30.0 30.0)
  end
  begin
     id 14 
     name lowerneck
     direction 0.0598257 0.997249 0.0437612   
     length 3.13679   
     axis 0 0 0   XYZ
    dof rx ry rz
    limits (-20.0 45.0)
           (-30.0 30.0)
           (-30.0 30.0)
  end
  begin
     id 15 
     name upperneck
     direction -0.035342 0.999338 0.00863891   
     length 3.16283   
     axis 0 0 0   XYZ
    dof rx ry rz
    limits (-20.0 45.0)
           (-30.0 30.0)
           (-30.0 30.0)
  end
  begin
     id 16
     name head
     direction 0.37144 0.811566 0.450991  
     length 1.2838  
     axis 0 0 0   XYZ
    dof rx ry rz
    limits (-20.0 45.0)
           (-30.0 30.0)
           (-30.0 30.0)
  end
  begin
     id 17 
     name lclavicle
     direction 0.961094 0.274654 -0.0293862  
     length 3.63466  
     axis 0 0 0   XYZ
    dof ry rz
    limits (-20.0 10.0)
           (0.0 20.0)
  end
  begin
     id 18 
     name lhumerus
     direction 1 -4.48963e-011 1.10303e-027   
     length 5.12842   
     axis 180 -30 -90   XYZ
    dof rx ry rz
    limits (-60.0 90.0)
           (-90.0 90.0)
           (-90.0 90.0)
  end
  begin
     id 19
     name lradius
     direction 1 -4.48968e-011 4.13199e-027   
     length 3.47396   
     axis 180 -30 -90   XYZ
    dof rx
    limits (-10.0 170.0)
  end
  begin
     id 20
     name lwrist
     direction 1 -4.48948e-011 9.12708e-027   
     length 1.73698   
     axis -6.84618e-015 90 90   XYZ
    dof ry
    limits (-180.0 0.0)
 end
  begin
     id 21 
     name lhand
     direction 1 -4.49057e-011 1.82749e-026   
     length 0.728607   
     axis -1.16502e-014 90 90   XYZ
    dof rx rz
    limits (-90.0 90.0)
           (-45.0 45.0)
  end
  begin
     id 22 
     name lfingers
     direction 1 -4.48912e-011 3.64949e-026   
     length 0.587422   
     axis -2.33008e-014 90 90   XYZ
    dof rx
    limits (0.0 90.0)
  end
  begin
     id 23
     name lthumb
     direction 0.707107 -6.34995e-011 0.707107   
     length 0.843424   
     axis -90 45 5.69224e-014   XYZ
    dof rx rz
    limits (-45.0 45.0)
           (-45.0 45.0)
  end
  begin
     id 24 
     name rclavicle
     direction -0.90514 0.421881 -0.0523369   
     length 3.57139  
     axis 0 0 0   XYZ 
    dof ry rz
    limits (-10.0 20.0)
           (-20.0 0.0)
  end
  begin
     id 25 
     name rhumerus
     direction -1 -4.48954e-011 -1.76662e-027  
     length 5.48477   
     axis 180 30 90   XYZ
    dof rx ry rz
    limits (-90.0 60.0)
           (-90.0 90.0)
           (-90.0 90.0)
  end
  begin
     id 26 
     name rradius
     direction -1 -4.48982e-011 1.26841e-027   
     length 3.47856   
     axis 180 30 90   XYZ
    dof rx
    limits (-10.0 170.0)
  end
  begin
     id 27 
     name rwrist
     direction -1 -4.49037e-011 9.13554e-027   
     length 1.73928   
     axis -6.84618e-015 -90 -90   XYZ
    dof ry
    limits (-180.0 0.0)
  end
  begin
     id 28
     name rhand
     direction -1 -4.48871e-011 1.82397e-026   
     length 0.709974   
     axis -1.16502e-014 -90 -90   XYZ
    dof rx rz
    limits (-90.0 90.0)
           (-45.0 45.0)
  end
  begin
     id 29
     name rfingers
     direction -1 -4.48994e-011 3.65258e-026   
     length 0.572399   
     axis -2.33008e-014 -90 -90   XYZ
    dof rx
    limits (0.0 90.0)
  end
  begin
     id 30
     name rthumb
     direction -0.707107 -6.34861e-011 0.707107   
     length 0.821855   
     axis -90 -45 -5.69224e-014   XYZ
    dof rx rz
    limits (-45.0 45.0)
           (-45.0 45.0)
  end
:hierarchy
  begin
    root lhipjoint rhipjoint lowerback
    lhipjoint lfemur
    lfemur ltibia
    ltibia lfoot
    lfoot ltoes
    rhipjoint rfemur
    rfemur rtibia
    rtibia rfoot
    rfoot rtoes
    lowerback upperback
    upperback thorax
    thorax lowerneck lclavicle rclavicle
    lowerneck upperneck
    upperneck head
    lclavicle lhumerus
    lhumerus lradius
    lradius lwrist
    lwrist lhand lthumb
    lhand lfingers
    rclavicle rhumerus
    rhumerus rradius
    rradius rwrist
    rwrist rhand rthumb
    rhand rfingers
  end

#!OML:ASF F:\VICON\USERDATA\INSTALL\Justin1\Justin1.ASF
:FULLY-SPECIFIED
:DEGREES
3565
root -10.8914 17.8976 -8.62793 7.14382 0.773291 -2.58804
lowerback 7.87077 1.08288 1.65552
upperback 2.45448 1.6304 2.70956
thorax -1.90713 0.807534 1.712
lowerneck -9.04591 -3.4956 -4.31418
upperneck 39.472 -2.93216 -3.04344
head 15.4181 -2.23493 -0.958783
rclavicle -1.59028e-014 -3.97569e-015
rhumerus -30.0078 -11.3858 -75.9434
rradius 37.4844
rwrist -8.23961
rhand -30.3947 16.5474
rfingers 7.12502
rthumb -3.69858 -13.4002
lclavicle -1.59028e-014 -3.97569e-015
lhumerus -40.3488 26.9662 71.8711
lradius 34.2624
lwrist -9.41843
lhand -12.5331 30.5383
lfingers 7.12502
lthumb 13.5433 60.0778
rfemur -10.8726 4.57528 29.089
rtibia 34.3082
rfoot -19.6905 -5.88257
rtoes 23.4661
lfemur -31.9005 -8.98766 -16.306
ltibia 31.5152
lfoot -8.69207 -4.33797
ltoes 5.07256
3566
root -10.8948 17.899 -8.72095 7.20351 0.592238 -2.66138
lowerback 7.88266 1.18223 1.81377
upperback 2.48834 1.77378 2.72291
thorax -1.87696 0.87886 1.62371
lowerneck -9.34366 -3.48905 -4.21065
upperneck 39.5249 -2.87137 -3.18981
head 15.5098 -2.21294 -1.03912
rclavicle -9.93923e-015 -7.95139e-015
rhumerus -29.6364 -11.1341 -76.0307
rradius 37.4477
rwrist -8.67506
rhand -30.6508 16.6848
rfingers 7.12502
rthumb -3.94596 -13.2585
lclavicle -9.93923e-015 -7.95139e-015
lhumerus -40.3469 27.064 72.047
lradius 34.3012
lwrist -9.30592
lhand -12.3409 30.5354
lfingers 7.12502
lthumb 13.7285 60.0625
rfemur -11.0872 4.50391 29.1549
rtibia 34.0437
rfoot -19.8066 -5.87205
rtoes 23.6563
lfemur -32.0678 -9.1059 -16.0717
ltibia 31.1615
lfoot -8.43104 -4.04407
ltoes 5.26845
3567
root -10.9012 17.8982 -8.81592 7.27383 0.39681 -2.59748
lowerback 7.88473 1.28109 1.76269
upperback 2.52902 1.89932 2.71412
thorax -1.83947 0.941479 1.63201
lowerneck -9.49364 -3.48463 -4.11843
upperneck 39.4078 -2.82519 -3.33309
head 15.4802 -2.19737 -1.10905
rclavicle -2.88238e-014 -1.11319e-014
rhumerus -29.2689 -10.8953 -76.1533
rradius 37.5261
rwrist -9.1279
rhand -30.9765 16.5481
rfingers 7.12502
rthumb -4.26042 -13.389
lclavicle -2.88238e-014 -1.11319e-014
lhumerus -40.2901 27.1092 72.2929
lradius 34.3182
lwrist -9.15467
lhand -12.412 30.4113
lfingers 7.12502
lthumb 13.6599 59.943
rfemur -11.4241 4.59045 29.0801
rtibia 33.8896
rfoot -19.8865 -5.88292
rtoes 24.5441
lfemur -32.2377 -9.19527 -15.9681
ltibia 30.7605
lfoot -8.15769 -3.84237
ltoes 5.79313
3568
root -10.911 17.8971 -8.91375 7.37756 0.251196 -2.54303
lowerback 7.98093 1.35458 1.6534
upperback 2.46466 1.99466 2.74653
thorax -1.96573 0.988439 1.71469
lowerneck -9.44552 -3.46304 -4.201
upperneck 39.1979 -2.77547 -3.33688
head 15.3652 -2.18675 -1.08004
rclavicle -1.76918e-014 -1.74931e-014
rhumerus -29.0464 -10.6485 -76.194
rradius 37.6392
rwrist -9.30232
rhand -31.0773 15.8396
rfingers 7.12502
rthumb -4.35774 -14.0956
lclavicle -1.76918e-014 -1.74931e-014
lhumerus -40.4255 27.1951 72.4667
lradius 34.3515
lwrist -9.09563
lhand -12.6007 30.209
lfingers 7.12502
lthumb 13.4781 59.7529
rfemur -11.8962 4.69045 29.0279
rtibia 33.811
rfoot -19.9306 -5.93966
rtoes 25.8203
lfemur -32.4616 -9.16366 -15.8518
ltibia 30.3132
lfoot -8.19977 -3.8373
ltoes 5.73938
3569
root -10.9187 17.8965 -9.00788 7.46638 0.111737 -2.45601
lowerback 8.06737 1.42578 1.604
upperback 2.41278 2.08938 2.72919
thorax -2.07015 1.03524 1.71249
lowerneck -9.47487 -3.44982 -4.39609
upperneck 39.0901 -2.77437 -3.15141
head 15.3277 -2.18885 -0.964011
rclavicle -1.94809e-014 -2.8625e-014
rhumerus -28.8188 -10.4685 -76.2401
rradius 37.684
rwrist -9.33947
rhand -30.9672 15.2562
rfingers 7.12502
rthumb -4.25147 -14.6811
lclavicle -1.94809e-014 -2.8625e-014
lhumerus -40.5277 27.2182 72.6108
lradius 34.362
lwrist -9.06423
lhand -12.6885 29.9361
lfingers 7.12502
lthumb 13.3934 59.4856
rfemur -12.3144 4.73931 28.9164
rtibia 33.7687
rfoot -19.9957 -5.83121
rtoes 26.17
lfemur -32.6196 -9.15276 -15.7885
ltibia 29.8534
lfoot -8.95362 -3.6788
ltoes 4.68229
3570
root -10.9253 17.8981 -9.0989 7.58073 0.0419167 -2.35049
lowerback 8.00841 1.46216 1.55632
upperback 2.41901 2.13095 2.70088
thorax -2.03252 1.05614 1.7075
lowerneck -9.67812 -3.41201 -4.52862
upperneck 39.0992 -2.73403 -2.98024
head 15.3877 -2.16856 -0.86707
rclavicle -8.34896e-015 -2.38542e-014
rhumerus -28.604 -10.3129 -76.3237
rradius 37.783
rwrist -9.27548
rhand -30.9223 15.3593
rfingers 7.12502
rthumb -4.20809 -14.5789
lclavicle -8.34896e-015 -2.38542e-014
lhumerus -40.5467 27.04 72.8754
lradius 34.5316
lwrist -8.87607
lhand -12.5468 29.8041
lfingers 7.12502
lthumb 13.5301 59.3446
rfemur -12.704 4.82038 28.7983
rtibia 33.7049
rfoot -20.0425 -5.75073
rtoes 26.32
lfemur -32.7755 -9.37551 -15.6925
ltibia 29.4385
lfoot -8.59997 -3.15464
ltoes 3.36915
3571
root -10.9322 17.899 -9.18996 7.68184 0.079537 -2.34518
lowerback 7.92635 1.43519 1.55613
upperback 2.44056 2.09304 2.75093
thorax -1.96591 1.03748 1.76537
lowerneck -9.94203 -3.31622 -4.48204
upperneck 39.0669 -2.5503 -3.0739
head 15.4305 -2.09694 -0.891914
rclavicle -2.127e-014 -1.51076e-014
rhumerus -28.6302 -9.96709 -76.3988
rradius 38.144
rwrist -9.35299
rhand -31.0468 15.5835
rfingers 7.12502
rthumb -4.32835 -14.3522
lclavicle -2.127e-014 -1.51076e-014
lhumerus -40.6576 26.8292 73.1986
lradius 34.8432
lwrist -8.66858
lhand -12.2721 29.9175
lfingers 7.12502
lthumb 13.7948 59.4401
rfemur -13.1035 4.86539 28.8245
rtibia 33.6217
rfoot -20.038 -5.87592
rtoes 27.2025
lfemur -32.9469 -9.63075 -15.4678
ltibia 29.0749
lfoot -9.17791 -2.61624
ltoes 1.39768
3572
root -10.9389 17.8972 -9.27864 7.66979 0.110761 -2.42231
lowerback 7.99862 1.42365 1.64863
upperback 2.45595 2.08806 2.80126
thorax -1.9885 1.03473 1.76445
lowerneck -10.0788 -3.24241 -4.3467
upperneck 38.9253 -2.41165 -3.22582
head 15.3845 -2.03795 -0.957538
rclavicle -1.72943e-014 -2.78299e-014
rhumerus -28.8157 -9.72694 -76.4169
rradius 38.5225
rwrist -9.3621
rhand -31.026 15.7056
rfingers 7.12502
rthumb -4.30822 -14.2306
lclavicle -1.72943e-014 -2.78299e-014
lhumerus -40.7417 26.6066 73.463
lradius 35.0193
lwrist -8.65842
lhand -12.0523 30.0918
lfingers 7.12502
lthumb 14.0066 59.5999
rfemur -13.4036 4.7963 28.9524
rtibia 33.5812
rfoot -19.9748 -6.102
rtoes 27.2659
lfemur -33.0296 -9.68637 -15.2209
ltibia 28.7529
lfoot -9.87018 -2.25605
ltoes -0.13927
3573
root -10.9441 17.8943 -9.36313 7.62986 0.130692 -2.41585
lowerback 8.09604 1.42055 1.70101
upperback 2.4412 2.09172 2.79451
thorax -2.05564 1.0362 1.72512
lowerneck -10.0961 -3.21523 -4.30362
upperneck 38.82 -2.38041 -3.23422
head 15.3338 -2.01871 -0.960915
rclavicle -1.59028e-014 -1.82882e-014
rhumerus -28.861 -9.66029 -76.421
rradius 38.6367
rwrist -9.14494
rhand -30.8978 16.0132
rfingers 7.12502
rthumb -4.18445 -13.9255
lclavicle -1.59028e-014 -1.82882e-014
lhumerus -40.761 26.2458 73.7547
lradius 35.1443
lwrist -8.58056
lhand -11.9954 30.3608
lfingers 7.12502
lthumb 14.0614 59.8651
rfemur -13.6767 4.67653 28.9818
rtibia 33.6261
rfoot -19.9941 -6.32571
rtoes 26.3986
lfemur -33.1032 -9.6689 -15.1162
ltibia 28.5038
lfoot -10.4684 -1.91463
ltoes -1.37067
3574
root -10.9481 17.8914 -9.4509 7.68457 0.280739 -2.39391
lowerback 8.11063 1.3582 1.78637
upperback 2.40807 2.01781 2.80443
thorax -2.09395 0.99916 1.69392
lowerneck -10.1785 -3.17877 -4.35149
upperneck 38.7795 -2.31339 -3.22143
head 15.3347 -1.99552 -0.937329
rclavicle 2.38542e-015 4.77083e-015
rhumerus -28.7205 -9.42278 -76.4587
rradius 38.6882
rwrist -9.13618
rhand -30.8744 15.9922
rfingers 7.12502
rthumb -4.16184 -13.9469
lclavicle 2.38542e-015 4.77083e-015
lhumerus -40.7361 25.9711 74.0625
lradius 35.1777
lwrist -8.52294
lhand -12.1028 30.3854
lfingers 7.12502
lthumb 13.958 59.8968
rfemur -14.1062 4.64661 28.9897
rtibia 33.7374
rfoot -20.146 -6.43519
rtoes 26.9872
lfemur -33.343 -9.75617 -15.007
ltibia 28.366
lfoot -11.2077 -1.43009
ltoes -2.70364
